G75*
%MOIN*%
%OFA0B0*%
%FSLAX25Y25*%
%IPPOS*%
%LPD*%
%AMOC8*
5,1,8,0,0,1.08239X$1,22.5*
%
%ADD10C,0.00000*%
D10*
X0067624Y0071875D02*
X0068149Y0071869D01*
X0068674Y0071850D01*
X0069199Y0071818D01*
X0069723Y0071773D01*
X0070245Y0071716D01*
X0070766Y0071647D01*
X0071285Y0071565D01*
X0071801Y0071470D01*
X0072316Y0071363D01*
X0072827Y0071243D01*
X0073336Y0071111D01*
X0073841Y0070967D01*
X0074343Y0070811D01*
X0074841Y0070642D01*
X0075334Y0070462D01*
X0075823Y0070270D01*
X0076307Y0070066D01*
X0076787Y0069850D01*
X0077260Y0069623D01*
X0077728Y0069384D01*
X0078191Y0069135D01*
X0078647Y0068874D01*
X0079096Y0068602D01*
X0079539Y0068319D01*
X0079975Y0068026D01*
X0080404Y0067722D01*
X0080826Y0067409D01*
X0081239Y0067084D01*
X0081645Y0066751D01*
X0082042Y0066407D01*
X0082431Y0066054D01*
X0082812Y0065691D01*
X0083183Y0065320D01*
X0083546Y0064939D01*
X0083899Y0064550D01*
X0084243Y0064153D01*
X0084576Y0063747D01*
X0084901Y0063334D01*
X0085214Y0062912D01*
X0085518Y0062483D01*
X0085811Y0062047D01*
X0086094Y0061604D01*
X0086366Y0061155D01*
X0086627Y0060699D01*
X0086876Y0060236D01*
X0087115Y0059768D01*
X0087342Y0059295D01*
X0087558Y0058815D01*
X0087762Y0058331D01*
X0087954Y0057842D01*
X0088134Y0057349D01*
X0088303Y0056851D01*
X0088459Y0056349D01*
X0088603Y0055844D01*
X0088735Y0055335D01*
X0088855Y0054824D01*
X0088962Y0054309D01*
X0089057Y0053793D01*
X0089139Y0053274D01*
X0089208Y0052753D01*
X0089265Y0052231D01*
X0089310Y0051707D01*
X0089342Y0051182D01*
X0089361Y0050657D01*
X0089367Y0050132D01*
X0089367Y0009867D01*
X0089369Y0009759D01*
X0089375Y0009651D01*
X0089385Y0009544D01*
X0089398Y0009437D01*
X0089416Y0009331D01*
X0089438Y0009225D01*
X0089463Y0009120D01*
X0089492Y0009016D01*
X0089525Y0008914D01*
X0089562Y0008812D01*
X0089602Y0008712D01*
X0089646Y0008614D01*
X0089694Y0008517D01*
X0089745Y0008422D01*
X0089799Y0008329D01*
X0089857Y0008238D01*
X0089918Y0008149D01*
X0089983Y0008062D01*
X0090050Y0007978D01*
X0090121Y0007896D01*
X0090194Y0007817D01*
X0090270Y0007741D01*
X0090349Y0007668D01*
X0090431Y0007597D01*
X0090515Y0007530D01*
X0090602Y0007465D01*
X0090691Y0007404D01*
X0090782Y0007346D01*
X0090875Y0007292D01*
X0090970Y0007241D01*
X0091067Y0007193D01*
X0091165Y0007149D01*
X0091265Y0007109D01*
X0091367Y0007072D01*
X0091469Y0007039D01*
X0091573Y0007010D01*
X0091678Y0006985D01*
X0091784Y0006963D01*
X0091890Y0006945D01*
X0091997Y0006932D01*
X0092104Y0006922D01*
X0092212Y0006916D01*
X0092320Y0006914D01*
X0092320Y0006915D02*
X0135627Y0006915D01*
X0135627Y0006914D02*
X0135735Y0006916D01*
X0135843Y0006922D01*
X0135950Y0006932D01*
X0136057Y0006945D01*
X0136163Y0006963D01*
X0136269Y0006985D01*
X0136374Y0007010D01*
X0136478Y0007039D01*
X0136580Y0007072D01*
X0136682Y0007109D01*
X0136782Y0007149D01*
X0136880Y0007193D01*
X0136977Y0007241D01*
X0137072Y0007292D01*
X0137165Y0007346D01*
X0137256Y0007404D01*
X0137345Y0007465D01*
X0137432Y0007530D01*
X0137516Y0007597D01*
X0137598Y0007668D01*
X0137677Y0007741D01*
X0137753Y0007817D01*
X0137826Y0007896D01*
X0137897Y0007978D01*
X0137964Y0008062D01*
X0138029Y0008149D01*
X0138090Y0008238D01*
X0138148Y0008329D01*
X0138202Y0008422D01*
X0138253Y0008517D01*
X0138301Y0008614D01*
X0138345Y0008712D01*
X0138385Y0008812D01*
X0138422Y0008914D01*
X0138455Y0009016D01*
X0138484Y0009120D01*
X0138509Y0009225D01*
X0138531Y0009331D01*
X0138549Y0009437D01*
X0138562Y0009544D01*
X0138572Y0009651D01*
X0138578Y0009759D01*
X0138580Y0009867D01*
X0138579Y0009867D02*
X0138579Y0131915D01*
X0138580Y0131915D02*
X0138578Y0132023D01*
X0138572Y0132131D01*
X0138562Y0132238D01*
X0138549Y0132345D01*
X0138531Y0132451D01*
X0138509Y0132557D01*
X0138484Y0132662D01*
X0138455Y0132766D01*
X0138422Y0132868D01*
X0138385Y0132970D01*
X0138345Y0133070D01*
X0138301Y0133168D01*
X0138253Y0133265D01*
X0138202Y0133360D01*
X0138148Y0133453D01*
X0138090Y0133544D01*
X0138029Y0133633D01*
X0137964Y0133720D01*
X0137897Y0133804D01*
X0137826Y0133886D01*
X0137753Y0133965D01*
X0137677Y0134041D01*
X0137598Y0134114D01*
X0137516Y0134185D01*
X0137432Y0134252D01*
X0137345Y0134317D01*
X0137256Y0134378D01*
X0137165Y0134436D01*
X0137072Y0134490D01*
X0136977Y0134541D01*
X0136880Y0134589D01*
X0136782Y0134633D01*
X0136682Y0134673D01*
X0136580Y0134710D01*
X0136478Y0134743D01*
X0136374Y0134772D01*
X0136269Y0134797D01*
X0136163Y0134819D01*
X0136057Y0134837D01*
X0135950Y0134850D01*
X0135843Y0134860D01*
X0135735Y0134866D01*
X0135627Y0134868D01*
X0135627Y0134867D02*
X0084446Y0134867D01*
X0084446Y0134868D02*
X0084338Y0134866D01*
X0084230Y0134860D01*
X0084123Y0134850D01*
X0084016Y0134837D01*
X0083910Y0134819D01*
X0083804Y0134797D01*
X0083699Y0134772D01*
X0083595Y0134743D01*
X0083493Y0134710D01*
X0083391Y0134673D01*
X0083291Y0134633D01*
X0083193Y0134589D01*
X0083096Y0134541D01*
X0083001Y0134490D01*
X0082908Y0134436D01*
X0082817Y0134378D01*
X0082728Y0134317D01*
X0082641Y0134252D01*
X0082557Y0134185D01*
X0082475Y0134114D01*
X0082396Y0134041D01*
X0082320Y0133965D01*
X0082247Y0133886D01*
X0082176Y0133804D01*
X0082109Y0133720D01*
X0082044Y0133633D01*
X0081983Y0133544D01*
X0081925Y0133453D01*
X0081871Y0133360D01*
X0081820Y0133265D01*
X0081772Y0133168D01*
X0081728Y0133070D01*
X0081688Y0132970D01*
X0081651Y0132868D01*
X0081618Y0132766D01*
X0081589Y0132662D01*
X0081564Y0132557D01*
X0081542Y0132451D01*
X0081524Y0132345D01*
X0081511Y0132238D01*
X0081501Y0132131D01*
X0081495Y0132023D01*
X0081493Y0131915D01*
X0081491Y0131807D01*
X0081485Y0131699D01*
X0081475Y0131592D01*
X0081462Y0131485D01*
X0081444Y0131379D01*
X0081422Y0131273D01*
X0081397Y0131168D01*
X0081368Y0131064D01*
X0081335Y0130962D01*
X0081298Y0130860D01*
X0081258Y0130760D01*
X0081214Y0130662D01*
X0081166Y0130565D01*
X0081115Y0130470D01*
X0081061Y0130377D01*
X0081003Y0130286D01*
X0080942Y0130197D01*
X0080877Y0130110D01*
X0080810Y0130026D01*
X0080739Y0129944D01*
X0080666Y0129865D01*
X0080590Y0129789D01*
X0080511Y0129716D01*
X0080429Y0129645D01*
X0080345Y0129578D01*
X0080258Y0129513D01*
X0080169Y0129452D01*
X0080078Y0129394D01*
X0079985Y0129340D01*
X0079890Y0129289D01*
X0079793Y0129241D01*
X0079695Y0129197D01*
X0079595Y0129157D01*
X0079493Y0129120D01*
X0079391Y0129087D01*
X0079287Y0129058D01*
X0079182Y0129033D01*
X0079076Y0129011D01*
X0078970Y0128993D01*
X0078863Y0128980D01*
X0078756Y0128970D01*
X0078648Y0128964D01*
X0078540Y0128962D01*
X0056886Y0128962D01*
X0056778Y0128964D01*
X0056670Y0128970D01*
X0056563Y0128980D01*
X0056456Y0128993D01*
X0056350Y0129011D01*
X0056244Y0129033D01*
X0056139Y0129058D01*
X0056035Y0129087D01*
X0055933Y0129120D01*
X0055831Y0129157D01*
X0055731Y0129197D01*
X0055633Y0129241D01*
X0055536Y0129289D01*
X0055441Y0129340D01*
X0055348Y0129394D01*
X0055257Y0129452D01*
X0055168Y0129513D01*
X0055081Y0129578D01*
X0054997Y0129645D01*
X0054915Y0129716D01*
X0054836Y0129789D01*
X0054760Y0129865D01*
X0054687Y0129944D01*
X0054616Y0130026D01*
X0054549Y0130110D01*
X0054484Y0130197D01*
X0054423Y0130286D01*
X0054365Y0130377D01*
X0054311Y0130470D01*
X0054260Y0130565D01*
X0054212Y0130662D01*
X0054168Y0130760D01*
X0054128Y0130860D01*
X0054091Y0130962D01*
X0054058Y0131064D01*
X0054029Y0131168D01*
X0054004Y0131273D01*
X0053982Y0131379D01*
X0053964Y0131485D01*
X0053951Y0131592D01*
X0053941Y0131699D01*
X0053935Y0131807D01*
X0053933Y0131915D01*
X0053934Y0131915D02*
X0053934Y0141757D01*
X0053932Y0141865D01*
X0053926Y0141973D01*
X0053916Y0142080D01*
X0053903Y0142187D01*
X0053885Y0142293D01*
X0053863Y0142399D01*
X0053838Y0142504D01*
X0053809Y0142608D01*
X0053776Y0142710D01*
X0053739Y0142812D01*
X0053699Y0142912D01*
X0053655Y0143010D01*
X0053607Y0143107D01*
X0053556Y0143202D01*
X0053502Y0143295D01*
X0053444Y0143386D01*
X0053383Y0143475D01*
X0053318Y0143562D01*
X0053251Y0143646D01*
X0053180Y0143728D01*
X0053107Y0143807D01*
X0053031Y0143883D01*
X0052952Y0143956D01*
X0052870Y0144027D01*
X0052786Y0144094D01*
X0052699Y0144159D01*
X0052610Y0144220D01*
X0052519Y0144278D01*
X0052426Y0144332D01*
X0052331Y0144383D01*
X0052234Y0144431D01*
X0052136Y0144475D01*
X0052036Y0144515D01*
X0051934Y0144552D01*
X0051832Y0144585D01*
X0051728Y0144614D01*
X0051623Y0144639D01*
X0051517Y0144661D01*
X0051411Y0144679D01*
X0051304Y0144692D01*
X0051197Y0144702D01*
X0051089Y0144708D01*
X0050981Y0144710D01*
X0031296Y0144710D01*
X0031188Y0144708D01*
X0031080Y0144702D01*
X0030973Y0144692D01*
X0030866Y0144679D01*
X0030760Y0144661D01*
X0030654Y0144639D01*
X0030549Y0144614D01*
X0030445Y0144585D01*
X0030343Y0144552D01*
X0030241Y0144515D01*
X0030141Y0144475D01*
X0030043Y0144431D01*
X0029946Y0144383D01*
X0029851Y0144332D01*
X0029758Y0144278D01*
X0029667Y0144220D01*
X0029578Y0144159D01*
X0029491Y0144094D01*
X0029407Y0144027D01*
X0029325Y0143956D01*
X0029246Y0143883D01*
X0029170Y0143807D01*
X0029097Y0143728D01*
X0029026Y0143646D01*
X0028959Y0143562D01*
X0028894Y0143475D01*
X0028833Y0143386D01*
X0028775Y0143295D01*
X0028721Y0143202D01*
X0028670Y0143107D01*
X0028622Y0143010D01*
X0028578Y0142912D01*
X0028538Y0142812D01*
X0028501Y0142710D01*
X0028468Y0142608D01*
X0028439Y0142504D01*
X0028414Y0142399D01*
X0028392Y0142293D01*
X0028374Y0142187D01*
X0028361Y0142080D01*
X0028351Y0141973D01*
X0028345Y0141865D01*
X0028343Y0141757D01*
X0028343Y0074828D01*
X0028345Y0074720D01*
X0028351Y0074612D01*
X0028361Y0074505D01*
X0028374Y0074398D01*
X0028392Y0074292D01*
X0028414Y0074186D01*
X0028439Y0074081D01*
X0028468Y0073977D01*
X0028501Y0073875D01*
X0028538Y0073773D01*
X0028578Y0073673D01*
X0028622Y0073575D01*
X0028670Y0073478D01*
X0028721Y0073383D01*
X0028775Y0073290D01*
X0028833Y0073199D01*
X0028894Y0073110D01*
X0028959Y0073023D01*
X0029026Y0072939D01*
X0029097Y0072857D01*
X0029170Y0072778D01*
X0029246Y0072702D01*
X0029325Y0072629D01*
X0029407Y0072558D01*
X0029491Y0072491D01*
X0029578Y0072426D01*
X0029667Y0072365D01*
X0029758Y0072307D01*
X0029851Y0072253D01*
X0029946Y0072202D01*
X0030043Y0072154D01*
X0030141Y0072110D01*
X0030241Y0072070D01*
X0030343Y0072033D01*
X0030445Y0072000D01*
X0030549Y0071971D01*
X0030654Y0071946D01*
X0030760Y0071924D01*
X0030866Y0071906D01*
X0030973Y0071893D01*
X0031080Y0071883D01*
X0031188Y0071877D01*
X0031296Y0071875D01*
X0067624Y0071875D01*
M02*
