G75*
%MOIN*%
%OFA0B0*%
%FSLAX25Y25*%
%IPPOS*%
%LPD*%
%AMOC8*
5,1,8,0,0,1.08239X$1,22.5*
%
%ADD10C,0.00400*%
D10*
X0079461Y0116332D02*
X0078694Y0117099D01*
X0078694Y0120936D01*
X0080996Y0120936D01*
X0081763Y0120169D01*
X0081763Y0118634D01*
X0080996Y0117867D01*
X0078694Y0117867D01*
X0077159Y0118634D02*
X0076392Y0119401D01*
X0074090Y0119401D01*
X0074090Y0120169D02*
X0074090Y0117867D01*
X0076392Y0117867D01*
X0077159Y0118634D01*
X0076392Y0120936D02*
X0074857Y0120936D01*
X0074090Y0120169D01*
X0072555Y0120936D02*
X0072555Y0117867D01*
X0072555Y0120936D02*
X0070253Y0120936D01*
X0069486Y0120169D01*
X0069486Y0117867D01*
X0063347Y0120936D02*
X0061813Y0117867D01*
X0060278Y0120936D01*
X0058743Y0120936D02*
X0057209Y0122471D01*
X0057209Y0117867D01*
X0058743Y0117867D02*
X0055674Y0117867D01*
X0054139Y0117867D02*
X0053372Y0117867D01*
X0053372Y0118634D01*
X0054139Y0118634D01*
X0054139Y0117867D01*
X0051837Y0118634D02*
X0048768Y0121703D01*
X0048768Y0118634D01*
X0049536Y0117867D01*
X0051070Y0117867D01*
X0051837Y0118634D01*
X0051837Y0121703D01*
X0051070Y0122471D01*
X0049536Y0122471D01*
X0048768Y0121703D01*
X0079461Y0116332D02*
X0080228Y0116332D01*
X0083298Y0117867D02*
X0084832Y0117867D01*
X0084065Y0117867D02*
X0084065Y0122471D01*
X0084832Y0122471D01*
X0087134Y0120936D02*
X0088669Y0120936D01*
X0089436Y0120169D01*
X0089436Y0118634D01*
X0088669Y0117867D01*
X0087134Y0117867D01*
X0086367Y0118634D01*
X0086367Y0120169D01*
X0087134Y0120936D01*
X0090971Y0122471D02*
X0090971Y0117867D01*
X0092505Y0120936D02*
X0090971Y0122471D01*
X0092505Y0120936D02*
X0094040Y0122471D01*
X0094040Y0117867D01*
X0100179Y0117867D02*
X0100179Y0120936D01*
X0101713Y0122471D01*
X0103248Y0120936D01*
X0103248Y0117867D01*
X0104783Y0117867D02*
X0107852Y0117867D01*
X0107852Y0122471D01*
X0104783Y0122471D01*
X0106317Y0120169D02*
X0107852Y0120169D01*
X0109387Y0122471D02*
X0112456Y0119401D01*
X0111688Y0120169D02*
X0109387Y0117867D01*
X0112456Y0117867D02*
X0112456Y0122471D01*
X0113990Y0122471D02*
X0115525Y0122471D01*
X0114758Y0122471D02*
X0114758Y0117867D01*
X0115525Y0117867D02*
X0113990Y0117867D01*
X0103248Y0120169D02*
X0100179Y0120169D01*
M02*
