%
M48
M72
T01C0.0197
T02C0.0400
%
T01
X8663Y7072
X9213Y7622
X9172Y8384
X10113Y8422
X9973Y9067
X9523Y9427
X9818Y9807
X9193Y10772
X9813Y11222
X8113Y12522
X6558Y10647
X5563Y10572
X4663Y10322
X4663Y11322
X4663Y12322
X5513Y9122
X4813Y7972
X6773Y8317
X9463Y6172
X10143Y6412
X10138Y7565
X11163Y9572
X12563Y9822
X12313Y12122
X13363Y12122
X13363Y13072
X12633Y7382
X12628Y5852
X13144Y5203
X13144Y4703
X13144Y4203
X13144Y3703
X13144Y3203
X13144Y2703
X13144Y2203
X13144Y1703
X10773Y3917
X10463Y4422
X10263Y3072
T02
X9773Y2517
X10773Y2517
X11773Y2517
X11773Y1517
X10773Y1517
X9773Y1517
X3623Y7817
X3623Y8817
X3623Y9817
X3623Y10817
X3623Y11817
X3623Y12817
M30
