G75*
%MOIN*%
%OFA0B0*%
%FSLAX25Y25*%
%IPPOS*%
%LPD*%
%AMOC8*
5,1,8,0,0,1.08239X$1,22.5*
%
%ADD10C,0.04000*%
%ADD11R,0.06000X0.06000*%
%ADD12OC8,0.06000*%
%ADD13C,0.07400*%
%ADD14C,0.01200*%
%ADD15C,0.03169*%
D10*
X0127438Y0017033D02*
X0131438Y0017033D01*
X0131438Y0022033D02*
X0127438Y0022033D01*
X0127438Y0027033D02*
X0131438Y0027033D01*
X0131438Y0032033D02*
X0127438Y0032033D01*
X0127438Y0037033D02*
X0131438Y0037033D01*
X0131438Y0042033D02*
X0127438Y0042033D01*
X0127438Y0047033D02*
X0131438Y0047033D01*
X0131438Y0052033D02*
X0127438Y0052033D01*
D11*
X0117725Y0025167D03*
D12*
X0107725Y0025167D03*
X0097725Y0025167D03*
X0097725Y0015167D03*
X0107725Y0015167D03*
X0117725Y0015167D03*
D13*
X0036225Y0078167D03*
X0036225Y0088167D03*
X0036225Y0098167D03*
X0036225Y0108167D03*
X0036225Y0118167D03*
X0036225Y0128167D03*
D14*
X0075449Y0072495D02*
X0080229Y0070193D01*
X0080229Y0070193D01*
X0084377Y0066885D01*
X0084377Y0066885D01*
X0087684Y0062737D01*
X0087684Y0062737D01*
X0089986Y0057957D01*
X0089986Y0057957D01*
X0091167Y0052785D01*
X0091167Y0009867D01*
X0091189Y0009643D01*
X0091361Y0009227D01*
X0091679Y0008909D01*
X0092095Y0008737D01*
X0092320Y0008715D01*
X0135627Y0008715D01*
X0135852Y0008737D01*
X0136267Y0008909D01*
X0136585Y0009227D01*
X0136757Y0009643D01*
X0136779Y0009867D01*
X0136779Y0016327D01*
X0135451Y0014998D01*
X0134569Y0014633D01*
X0134412Y0014633D01*
X0133590Y0013811D01*
X0132194Y0013233D01*
X0126682Y0013233D01*
X0125285Y0013811D01*
X0124216Y0014880D01*
X0123638Y0016277D01*
X0123638Y0017789D01*
X0124216Y0019185D01*
X0124564Y0019533D01*
X0124216Y0019880D01*
X0124213Y0019889D01*
X0121973Y0018120D01*
X0121766Y0017914D01*
X0122525Y0017155D01*
X0122525Y0013178D01*
X0119713Y0010367D01*
X0115737Y0010367D01*
X0112925Y0013178D01*
X0112925Y0016973D01*
X0112525Y0016573D01*
X0112525Y0013178D01*
X0109713Y0010367D01*
X0105737Y0010367D01*
X0102925Y0013178D01*
X0102925Y0017155D01*
X0105737Y0019967D01*
X0109131Y0019967D01*
X0109531Y0020367D01*
X0105737Y0020367D01*
X0102925Y0023178D01*
X0102925Y0027155D01*
X0105282Y0029512D01*
X0105282Y0030601D01*
X0105647Y0031483D01*
X0106322Y0032158D01*
X0106322Y0032158D01*
X0107690Y0033526D01*
X0108366Y0034201D01*
X0109248Y0034567D01*
X0124530Y0034567D01*
X0124464Y0034633D01*
X0109382Y0034633D01*
X0108499Y0034998D01*
X0107715Y0035782D01*
X0107052Y0035782D01*
X0105808Y0036298D01*
X0104856Y0037250D01*
X0104341Y0038493D01*
X0104341Y0039840D01*
X0104712Y0040736D01*
X0104615Y0040832D01*
X0103952Y0040832D01*
X0102708Y0041348D01*
X0101756Y0042300D01*
X0101241Y0043543D01*
X0101241Y0044890D01*
X0101756Y0046134D01*
X0102708Y0047086D01*
X0103952Y0047601D01*
X0105298Y0047601D01*
X0106542Y0047086D01*
X0107494Y0046134D01*
X0108009Y0044890D01*
X0108009Y0044433D01*
X0124464Y0044433D01*
X0124705Y0044674D01*
X0124641Y0044738D01*
X0124247Y0045328D01*
X0123976Y0045983D01*
X0123838Y0046678D01*
X0123838Y0047033D01*
X0131438Y0047033D01*
X0131438Y0047033D01*
X0123838Y0047033D01*
X0123838Y0047387D01*
X0123976Y0048083D01*
X0124247Y0048738D01*
X0124641Y0049328D01*
X0124705Y0049391D01*
X0124216Y0049880D01*
X0123638Y0051277D01*
X0123638Y0052789D01*
X0124216Y0054185D01*
X0125285Y0055254D01*
X0126682Y0055833D01*
X0132194Y0055833D01*
X0133325Y0055364D01*
X0133325Y0099173D01*
X0132731Y0099767D01*
X0101134Y0099767D01*
X0101559Y0098740D01*
X0101559Y0097393D01*
X0101044Y0096150D01*
X0100092Y0095198D01*
X0098848Y0094682D01*
X0098609Y0094682D01*
X0098609Y0093868D01*
X0099052Y0094051D01*
X0100398Y0094051D01*
X0101642Y0093536D01*
X0102594Y0092584D01*
X0103109Y0091340D01*
X0103109Y0089993D01*
X0102594Y0088750D01*
X0101642Y0087798D01*
X0100398Y0087282D01*
X0099052Y0087282D01*
X0097808Y0087798D01*
X0097339Y0088267D01*
X0070719Y0088267D01*
X0070125Y0087673D01*
X0070125Y0085553D01*
X0070594Y0085084D01*
X0071109Y0083840D01*
X0071109Y0082493D01*
X0070594Y0081250D01*
X0069642Y0080298D01*
X0068398Y0079782D01*
X0067052Y0079782D01*
X0065808Y0080298D01*
X0064856Y0081250D01*
X0064341Y0082493D01*
X0064341Y0083840D01*
X0064856Y0085084D01*
X0065325Y0085553D01*
X0065325Y0089144D01*
X0065690Y0090026D01*
X0066366Y0090701D01*
X0068366Y0092701D01*
X0069248Y0093067D01*
X0092059Y0093067D01*
X0091976Y0093267D01*
X0047719Y0093267D01*
X0047125Y0092673D01*
X0047125Y0089189D01*
X0046760Y0088307D01*
X0046085Y0087632D01*
X0045083Y0086630D01*
X0044407Y0085955D01*
X0043525Y0085589D01*
X0041111Y0085589D01*
X0040888Y0085051D01*
X0039341Y0083504D01*
X0038526Y0083167D01*
X0039341Y0082829D01*
X0040888Y0081282D01*
X0041725Y0079261D01*
X0041725Y0077073D01*
X0040888Y0075051D01*
X0039512Y0073675D01*
X0070277Y0073675D01*
X0075449Y0072495D01*
X0075449Y0072495D01*
X0074701Y0072665D02*
X0098988Y0072665D01*
X0098985Y0073249D02*
X0099015Y0066492D01*
X0098556Y0066034D01*
X0098041Y0064790D01*
X0098041Y0063443D01*
X0098556Y0062200D01*
X0099508Y0061248D01*
X0100752Y0060732D01*
X0102098Y0060732D01*
X0103342Y0061248D01*
X0104294Y0062200D01*
X0104809Y0063443D01*
X0104809Y0064790D01*
X0104294Y0066034D01*
X0103815Y0066513D01*
X0103785Y0073270D01*
X0104244Y0073729D01*
X0104759Y0074973D01*
X0104759Y0076319D01*
X0104244Y0077563D01*
X0103292Y0078515D01*
X0102048Y0079030D01*
X0100702Y0079030D01*
X0099458Y0078515D01*
X0098506Y0077563D01*
X0097991Y0076319D01*
X0097991Y0074973D01*
X0098506Y0073729D01*
X0098985Y0073249D01*
X0098450Y0073864D02*
X0039701Y0073864D01*
X0040892Y0075062D02*
X0097991Y0075062D01*
X0097991Y0076261D02*
X0041389Y0076261D01*
X0041725Y0077459D02*
X0098463Y0077459D01*
X0099804Y0078658D02*
X0041725Y0078658D01*
X0041478Y0079856D02*
X0066873Y0079856D01*
X0068577Y0079856D02*
X0133325Y0079856D01*
X0133325Y0078658D02*
X0102946Y0078658D01*
X0104287Y0077459D02*
X0133325Y0077459D01*
X0133325Y0076261D02*
X0104759Y0076261D01*
X0104759Y0075062D02*
X0133325Y0075062D01*
X0133325Y0073864D02*
X0104300Y0073864D01*
X0103788Y0072665D02*
X0133325Y0072665D01*
X0133325Y0071467D02*
X0103793Y0071467D01*
X0103798Y0070268D02*
X0133325Y0070268D01*
X0133325Y0069070D02*
X0103804Y0069070D01*
X0103809Y0067871D02*
X0133325Y0067871D01*
X0133325Y0066673D02*
X0103814Y0066673D01*
X0104526Y0065474D02*
X0133325Y0065474D01*
X0133325Y0064276D02*
X0104809Y0064276D01*
X0104658Y0063077D02*
X0133325Y0063077D01*
X0133325Y0061879D02*
X0103973Y0061879D01*
X0101425Y0064117D02*
X0101375Y0075646D01*
X0098993Y0071467D02*
X0077583Y0071467D01*
X0080072Y0070268D02*
X0098998Y0070268D01*
X0099004Y0069070D02*
X0081637Y0069070D01*
X0083140Y0067871D02*
X0099009Y0067871D01*
X0099014Y0066673D02*
X0084546Y0066673D01*
X0085502Y0065474D02*
X0098324Y0065474D01*
X0098041Y0064276D02*
X0086457Y0064276D01*
X0087413Y0063077D02*
X0098192Y0063077D01*
X0098877Y0061879D02*
X0088098Y0061879D01*
X0088675Y0060680D02*
X0133325Y0060680D01*
X0133325Y0059482D02*
X0089252Y0059482D01*
X0089829Y0058283D02*
X0133325Y0058283D01*
X0133325Y0057085D02*
X0090185Y0057085D01*
X0090459Y0055886D02*
X0133325Y0055886D01*
X0124719Y0054688D02*
X0090733Y0054688D01*
X0091006Y0053489D02*
X0123928Y0053489D01*
X0123638Y0052291D02*
X0091167Y0052291D01*
X0091167Y0051092D02*
X0123714Y0051092D01*
X0124211Y0049894D02*
X0091167Y0049894D01*
X0091167Y0048695D02*
X0124230Y0048695D01*
X0123859Y0047497D02*
X0105550Y0047497D01*
X0103700Y0047497D02*
X0091167Y0047497D01*
X0091167Y0046298D02*
X0101921Y0046298D01*
X0101328Y0045100D02*
X0091167Y0045100D01*
X0091167Y0043901D02*
X0101241Y0043901D01*
X0101589Y0042703D02*
X0091167Y0042703D01*
X0091167Y0041504D02*
X0102552Y0041504D01*
X0104534Y0040306D02*
X0091167Y0040306D01*
X0091167Y0039107D02*
X0104341Y0039107D01*
X0104583Y0037909D02*
X0091167Y0037909D01*
X0091167Y0036710D02*
X0105396Y0036710D01*
X0107986Y0035512D02*
X0091167Y0035512D01*
X0091167Y0034313D02*
X0108635Y0034313D01*
X0107279Y0033115D02*
X0091167Y0033115D01*
X0091167Y0031916D02*
X0106080Y0031916D01*
X0105330Y0030718D02*
X0091167Y0030718D01*
X0091167Y0029519D02*
X0095289Y0029519D01*
X0095737Y0029967D02*
X0092925Y0027155D01*
X0092925Y0023178D01*
X0095737Y0020367D01*
X0099713Y0020367D01*
X0102525Y0023178D01*
X0102525Y0027155D01*
X0099713Y0029967D01*
X0095737Y0029967D01*
X0094091Y0028321D02*
X0091167Y0028321D01*
X0091167Y0027122D02*
X0092925Y0027122D01*
X0092925Y0025923D02*
X0091167Y0025923D01*
X0091167Y0024725D02*
X0092925Y0024725D01*
X0092925Y0023526D02*
X0091167Y0023526D01*
X0091167Y0022328D02*
X0093776Y0022328D01*
X0094974Y0021129D02*
X0091167Y0021129D01*
X0091167Y0019931D02*
X0105701Y0019931D01*
X0104974Y0021129D02*
X0100476Y0021129D01*
X0099630Y0019767D02*
X0098125Y0019767D01*
X0098125Y0015567D01*
X0097325Y0015567D01*
X0097325Y0019767D01*
X0095820Y0019767D01*
X0093125Y0017072D01*
X0093125Y0015567D01*
X0097325Y0015567D01*
X0097325Y0014767D01*
X0093125Y0014767D01*
X0093125Y0013261D01*
X0095820Y0010567D01*
X0097325Y0010567D01*
X0097325Y0014767D01*
X0098125Y0014767D01*
X0098125Y0015567D01*
X0102325Y0015567D01*
X0102325Y0017072D01*
X0099630Y0019767D01*
X0100665Y0018732D02*
X0104503Y0018732D01*
X0103304Y0017534D02*
X0101863Y0017534D01*
X0102325Y0016335D02*
X0102925Y0016335D01*
X0102925Y0015137D02*
X0098125Y0015137D01*
X0098125Y0014767D02*
X0102325Y0014767D01*
X0102325Y0013261D01*
X0099630Y0010567D01*
X0098125Y0010567D01*
X0098125Y0014767D01*
X0098125Y0013938D02*
X0097325Y0013938D01*
X0097325Y0012740D02*
X0098125Y0012740D01*
X0098125Y0011541D02*
X0097325Y0011541D01*
X0100605Y0011541D02*
X0104562Y0011541D01*
X0103364Y0012740D02*
X0101804Y0012740D01*
X0102325Y0013938D02*
X0102925Y0013938D01*
X0098125Y0016335D02*
X0097325Y0016335D01*
X0097325Y0015137D02*
X0091167Y0015137D01*
X0091167Y0016335D02*
X0093125Y0016335D01*
X0093587Y0017534D02*
X0091167Y0017534D01*
X0091167Y0018732D02*
X0094785Y0018732D01*
X0097325Y0018732D02*
X0098125Y0018732D01*
X0098125Y0017534D02*
X0097325Y0017534D01*
X0101675Y0022328D02*
X0103776Y0022328D01*
X0102925Y0023526D02*
X0102525Y0023526D01*
X0102525Y0024725D02*
X0102925Y0024725D01*
X0102925Y0025923D02*
X0102525Y0025923D01*
X0102525Y0027122D02*
X0102925Y0027122D01*
X0104091Y0028321D02*
X0101359Y0028321D01*
X0100161Y0029519D02*
X0105282Y0029519D01*
X0107682Y0030123D02*
X0107682Y0025210D01*
X0107725Y0025167D01*
X0107682Y0030123D02*
X0109725Y0032167D01*
X0131304Y0032167D01*
X0131438Y0032033D01*
X0131304Y0027167D02*
X0125225Y0027167D01*
X0123225Y0025167D01*
X0123225Y0022167D01*
X0120375Y0019917D01*
X0112475Y0019917D01*
X0107725Y0015167D01*
X0107922Y0015167D01*
X0112525Y0015137D02*
X0112925Y0015137D01*
X0112925Y0016335D02*
X0112525Y0016335D01*
X0112525Y0013938D02*
X0112925Y0013938D01*
X0113364Y0012740D02*
X0112086Y0012740D01*
X0110888Y0011541D02*
X0114562Y0011541D01*
X0120888Y0011541D02*
X0136779Y0011541D01*
X0136779Y0010343D02*
X0091167Y0010343D01*
X0091167Y0011541D02*
X0094845Y0011541D01*
X0093646Y0012740D02*
X0091167Y0012740D01*
X0091167Y0013938D02*
X0093125Y0013938D01*
X0091444Y0009144D02*
X0136502Y0009144D01*
X0136779Y0012740D02*
X0122086Y0012740D01*
X0122525Y0013938D02*
X0125158Y0013938D01*
X0124110Y0015137D02*
X0122525Y0015137D01*
X0122525Y0016335D02*
X0123638Y0016335D01*
X0123638Y0017534D02*
X0122146Y0017534D01*
X0122748Y0018732D02*
X0124029Y0018732D01*
X0131438Y0017033D02*
X0134091Y0017033D01*
X0135725Y0018667D01*
X0135725Y0100167D01*
X0133725Y0102167D01*
X0093129Y0102167D01*
X0091926Y0103370D01*
X0091926Y0107266D01*
X0091925Y0107717D01*
X0094326Y0105331D02*
X0094794Y0105800D01*
X0095309Y0107043D01*
X0095309Y0108390D01*
X0094794Y0109634D01*
X0093842Y0110586D01*
X0092598Y0111101D01*
X0091252Y0111101D01*
X0090008Y0110586D01*
X0089056Y0109634D01*
X0088541Y0108390D01*
X0088541Y0107043D01*
X0089056Y0105800D01*
X0089526Y0105330D01*
X0089526Y0102892D01*
X0089891Y0102010D01*
X0090566Y0101335D01*
X0091435Y0100467D01*
X0041226Y0100467D01*
X0040888Y0101282D01*
X0039341Y0102829D01*
X0038526Y0103167D01*
X0039341Y0103504D01*
X0040888Y0105051D01*
X0041725Y0107073D01*
X0041725Y0109261D01*
X0040888Y0111282D01*
X0039341Y0112829D01*
X0038284Y0113267D01*
X0039003Y0113634D01*
X0039678Y0114124D01*
X0040268Y0114714D01*
X0040758Y0115389D01*
X0041137Y0116132D01*
X0041395Y0116926D01*
X0041525Y0117750D01*
X0041525Y0117767D01*
X0036625Y0117767D01*
X0036625Y0118567D01*
X0035825Y0118567D01*
X0035825Y0122867D01*
X0035825Y0127767D01*
X0030925Y0127767D01*
X0030925Y0127750D01*
X0031056Y0126926D01*
X0031313Y0126132D01*
X0031692Y0125389D01*
X0032182Y0124714D01*
X0032772Y0124124D01*
X0033447Y0123634D01*
X0034191Y0123255D01*
X0034462Y0123167D01*
X0034191Y0123078D01*
X0033447Y0122700D01*
X0032772Y0122209D01*
X0032182Y0121619D01*
X0031692Y0120944D01*
X0031313Y0120201D01*
X0031056Y0119408D01*
X0030925Y0118584D01*
X0030925Y0118567D01*
X0035825Y0118567D01*
X0035825Y0117767D01*
X0030925Y0117767D01*
X0030925Y0117750D01*
X0031056Y0116926D01*
X0031313Y0116132D01*
X0031692Y0115389D01*
X0032182Y0114714D01*
X0032772Y0114124D01*
X0033447Y0113634D01*
X0034167Y0113267D01*
X0033110Y0112829D01*
X0031562Y0111282D01*
X0030725Y0109261D01*
X0030725Y0107073D01*
X0031562Y0105051D01*
X0033110Y0103504D01*
X0033924Y0103167D01*
X0033110Y0102829D01*
X0031562Y0101282D01*
X0030725Y0099261D01*
X0030725Y0097073D01*
X0031562Y0095051D01*
X0033110Y0093504D01*
X0033924Y0093167D01*
X0033110Y0092829D01*
X0031562Y0091282D01*
X0030725Y0089261D01*
X0030725Y0087073D01*
X0031562Y0085051D01*
X0033110Y0083504D01*
X0033924Y0083167D01*
X0033110Y0082829D01*
X0031562Y0081282D01*
X0030725Y0079261D01*
X0030725Y0077073D01*
X0031562Y0075051D01*
X0032938Y0073675D01*
X0031296Y0073675D01*
X0031071Y0073697D01*
X0031071Y0073697D01*
X0030655Y0073870D01*
X0030337Y0074188D01*
X0030165Y0074603D01*
X0030143Y0074828D01*
X0030143Y0135167D01*
X0052134Y0135167D01*
X0052134Y0130969D01*
X0052857Y0129222D01*
X0054194Y0127885D01*
X0054194Y0127885D01*
X0055941Y0127162D01*
X0079485Y0127162D01*
X0081232Y0127885D01*
X0082569Y0129222D01*
X0082569Y0129222D01*
X0083293Y0130969D01*
X0083293Y0131915D01*
X0083315Y0132140D01*
X0083487Y0132555D01*
X0083805Y0132873D01*
X0084221Y0133045D01*
X0084446Y0133067D01*
X0135627Y0133067D01*
X0135852Y0133045D01*
X0136267Y0132873D01*
X0136585Y0132555D01*
X0136757Y0132140D01*
X0136779Y0131915D01*
X0136779Y0102506D01*
X0135760Y0103526D01*
X0135085Y0104201D01*
X0134202Y0104567D01*
X0094326Y0104567D01*
X0094326Y0105331D01*
X0094326Y0105025D02*
X0136779Y0105025D01*
X0136779Y0103827D02*
X0135459Y0103827D01*
X0136658Y0102628D02*
X0136779Y0102628D01*
X0136779Y0106224D02*
X0094970Y0106224D01*
X0095309Y0107422D02*
X0136779Y0107422D01*
X0136779Y0108621D02*
X0095214Y0108621D01*
X0094608Y0109819D02*
X0136779Y0109819D01*
X0136779Y0111018D02*
X0092799Y0111018D01*
X0091051Y0111018D02*
X0040997Y0111018D01*
X0041494Y0109819D02*
X0089242Y0109819D01*
X0088636Y0108621D02*
X0041725Y0108621D01*
X0041725Y0107422D02*
X0088541Y0107422D01*
X0088880Y0106224D02*
X0041373Y0106224D01*
X0040862Y0105025D02*
X0089526Y0105025D01*
X0089526Y0103827D02*
X0039663Y0103827D01*
X0039542Y0102628D02*
X0089635Y0102628D01*
X0090472Y0101430D02*
X0040740Y0101430D01*
X0036225Y0098167D02*
X0036225Y0098067D01*
X0098175Y0098067D01*
X0101245Y0096636D02*
X0133325Y0096636D01*
X0133325Y0097834D02*
X0101559Y0097834D01*
X0101438Y0099033D02*
X0133325Y0099033D01*
X0133325Y0095437D02*
X0100332Y0095437D01*
X0098609Y0094239D02*
X0133325Y0094239D01*
X0133325Y0093040D02*
X0102138Y0093040D01*
X0102901Y0091842D02*
X0133325Y0091842D01*
X0133325Y0090643D02*
X0103109Y0090643D01*
X0102882Y0089445D02*
X0133325Y0089445D01*
X0133325Y0088246D02*
X0102091Y0088246D01*
X0099725Y0090667D02*
X0069725Y0090667D01*
X0067725Y0088667D01*
X0067725Y0083167D01*
X0070774Y0084651D02*
X0133325Y0084651D01*
X0133325Y0085849D02*
X0070125Y0085849D01*
X0070125Y0087048D02*
X0133325Y0087048D01*
X0133325Y0083452D02*
X0071109Y0083452D01*
X0071010Y0082254D02*
X0133325Y0082254D01*
X0133325Y0081055D02*
X0070399Y0081055D01*
X0065051Y0081055D02*
X0040982Y0081055D01*
X0039916Y0082254D02*
X0064440Y0082254D01*
X0064341Y0083452D02*
X0039215Y0083452D01*
X0040487Y0084651D02*
X0064677Y0084651D01*
X0065325Y0085849D02*
X0044152Y0085849D01*
X0045500Y0087048D02*
X0065325Y0087048D01*
X0065325Y0088246D02*
X0046699Y0088246D01*
X0047125Y0089445D02*
X0065450Y0089445D01*
X0066307Y0090643D02*
X0047125Y0090643D01*
X0047125Y0091842D02*
X0067506Y0091842D01*
X0069184Y0093040D02*
X0047493Y0093040D01*
X0046725Y0095667D02*
X0044725Y0093667D01*
X0044725Y0089667D01*
X0043048Y0087989D01*
X0036402Y0087989D01*
X0036225Y0088167D01*
X0030725Y0088246D02*
X0030143Y0088246D01*
X0030143Y0087048D02*
X0030735Y0087048D01*
X0031232Y0085849D02*
X0030143Y0085849D01*
X0030143Y0084651D02*
X0031963Y0084651D01*
X0033235Y0083452D02*
X0030143Y0083452D01*
X0030143Y0082254D02*
X0032534Y0082254D01*
X0031468Y0081055D02*
X0030143Y0081055D01*
X0030143Y0079856D02*
X0030972Y0079856D01*
X0030725Y0078658D02*
X0030143Y0078658D01*
X0030143Y0077459D02*
X0030725Y0077459D01*
X0031061Y0076261D02*
X0030143Y0076261D01*
X0030143Y0075062D02*
X0031558Y0075062D01*
X0030669Y0073864D02*
X0032750Y0073864D01*
X0030801Y0089445D02*
X0030143Y0089445D01*
X0030143Y0090643D02*
X0031298Y0090643D01*
X0032122Y0091842D02*
X0030143Y0091842D01*
X0030143Y0093040D02*
X0033618Y0093040D01*
X0032375Y0094239D02*
X0030143Y0094239D01*
X0030143Y0095437D02*
X0031403Y0095437D01*
X0030906Y0096636D02*
X0030143Y0096636D01*
X0030143Y0097834D02*
X0030725Y0097834D01*
X0030725Y0099033D02*
X0030143Y0099033D01*
X0030143Y0100231D02*
X0031127Y0100231D01*
X0031710Y0101430D02*
X0030143Y0101430D01*
X0030143Y0102628D02*
X0032908Y0102628D01*
X0032787Y0103827D02*
X0030143Y0103827D01*
X0030143Y0105025D02*
X0031588Y0105025D01*
X0031077Y0106224D02*
X0030143Y0106224D01*
X0030143Y0107422D02*
X0030725Y0107422D01*
X0030725Y0108621D02*
X0030143Y0108621D01*
X0030143Y0109819D02*
X0030956Y0109819D01*
X0031453Y0111018D02*
X0030143Y0111018D01*
X0030143Y0112216D02*
X0032497Y0112216D01*
X0033877Y0113415D02*
X0030143Y0113415D01*
X0030143Y0114613D02*
X0032283Y0114613D01*
X0031477Y0115812D02*
X0030143Y0115812D01*
X0030143Y0117010D02*
X0031042Y0117010D01*
X0030143Y0118209D02*
X0035825Y0118209D01*
X0036625Y0118209D02*
X0136779Y0118209D01*
X0136779Y0119407D02*
X0041395Y0119407D01*
X0041395Y0119408D02*
X0041137Y0120201D01*
X0040758Y0120944D01*
X0040268Y0121619D01*
X0039678Y0122209D01*
X0039003Y0122700D01*
X0038260Y0123078D01*
X0037988Y0123167D01*
X0038260Y0123255D01*
X0039003Y0123634D01*
X0039678Y0124124D01*
X0040268Y0124714D01*
X0040758Y0125389D01*
X0041137Y0126132D01*
X0041395Y0126926D01*
X0041525Y0127750D01*
X0041525Y0127767D01*
X0036625Y0127767D01*
X0036625Y0128567D01*
X0035825Y0128567D01*
X0035825Y0133467D01*
X0035808Y0133467D01*
X0034984Y0133336D01*
X0034191Y0133078D01*
X0033447Y0132700D01*
X0032772Y0132209D01*
X0032182Y0131619D01*
X0031692Y0130944D01*
X0031313Y0130201D01*
X0031056Y0129408D01*
X0030925Y0128584D01*
X0030925Y0128567D01*
X0035825Y0128567D01*
X0035825Y0127767D01*
X0036625Y0127767D01*
X0036625Y0118567D01*
X0041525Y0118567D01*
X0041525Y0118584D01*
X0041395Y0119408D01*
X0040931Y0120606D02*
X0136779Y0120606D01*
X0136779Y0121804D02*
X0040083Y0121804D01*
X0038408Y0123003D02*
X0136779Y0123003D01*
X0136779Y0124201D02*
X0039755Y0124201D01*
X0040764Y0125400D02*
X0136779Y0125400D01*
X0136779Y0126598D02*
X0041288Y0126598D01*
X0041525Y0128567D02*
X0041525Y0128584D01*
X0041395Y0129408D01*
X0041137Y0130201D01*
X0040758Y0130944D01*
X0040268Y0131619D01*
X0039678Y0132209D01*
X0039003Y0132700D01*
X0038260Y0133078D01*
X0037466Y0133336D01*
X0036642Y0133467D01*
X0036625Y0133467D01*
X0036625Y0128567D01*
X0041525Y0128567D01*
X0041460Y0128995D02*
X0053084Y0128995D01*
X0052857Y0129222D02*
X0052857Y0129222D01*
X0052455Y0130194D02*
X0041139Y0130194D01*
X0040433Y0131392D02*
X0052134Y0131392D01*
X0052134Y0132591D02*
X0039152Y0132591D01*
X0036625Y0132591D02*
X0035825Y0132591D01*
X0035825Y0131392D02*
X0036625Y0131392D01*
X0036625Y0130194D02*
X0035825Y0130194D01*
X0035825Y0128995D02*
X0036625Y0128995D01*
X0036625Y0127797D02*
X0054408Y0127797D01*
X0052134Y0133790D02*
X0030143Y0133790D01*
X0030143Y0134988D02*
X0052134Y0134988D01*
X0036625Y0126598D02*
X0035825Y0126598D01*
X0035825Y0125400D02*
X0036625Y0125400D01*
X0036625Y0124201D02*
X0035825Y0124201D01*
X0035825Y0123003D02*
X0036625Y0123003D01*
X0036625Y0121804D02*
X0035825Y0121804D01*
X0035825Y0120606D02*
X0036625Y0120606D01*
X0036625Y0119407D02*
X0035825Y0119407D01*
X0034043Y0123003D02*
X0030143Y0123003D01*
X0030143Y0124201D02*
X0032695Y0124201D01*
X0031686Y0125400D02*
X0030143Y0125400D01*
X0030143Y0126598D02*
X0031162Y0126598D01*
X0030143Y0127797D02*
X0035825Y0127797D01*
X0030990Y0128995D02*
X0030143Y0128995D01*
X0030143Y0130194D02*
X0031311Y0130194D01*
X0032018Y0131392D02*
X0030143Y0131392D01*
X0030143Y0132591D02*
X0033298Y0132591D01*
X0032367Y0121804D02*
X0030143Y0121804D01*
X0030143Y0120606D02*
X0031520Y0120606D01*
X0031056Y0119407D02*
X0030143Y0119407D01*
X0038573Y0113415D02*
X0136779Y0113415D01*
X0136779Y0114613D02*
X0040167Y0114613D01*
X0040974Y0115812D02*
X0136779Y0115812D01*
X0136779Y0117010D02*
X0041408Y0117010D01*
X0039954Y0112216D02*
X0136779Y0112216D01*
X0136779Y0127797D02*
X0081018Y0127797D01*
X0082342Y0128995D02*
X0136779Y0128995D01*
X0136779Y0130194D02*
X0082972Y0130194D01*
X0082569Y0129222D02*
X0082569Y0129222D01*
X0083293Y0131392D02*
X0136779Y0131392D01*
X0136549Y0132591D02*
X0083523Y0132591D01*
X0093825Y0095667D02*
X0046725Y0095667D01*
X0070699Y0088246D02*
X0097360Y0088246D01*
X0095225Y0094267D02*
X0093825Y0095667D01*
X0107330Y0046298D02*
X0123913Y0046298D01*
X0124400Y0045100D02*
X0107922Y0045100D01*
X0106809Y0042033D02*
X0104625Y0044217D01*
X0106809Y0042033D02*
X0131438Y0042033D01*
X0131438Y0037033D02*
X0109859Y0037033D01*
X0107725Y0039167D01*
X0131304Y0027167D02*
X0131438Y0027033D01*
X0135589Y0015137D02*
X0136779Y0015137D01*
X0136779Y0013938D02*
X0133717Y0013938D01*
D15*
X0107725Y0039167D03*
X0104625Y0044217D03*
X0102625Y0030717D03*
X0126275Y0058517D03*
X0126325Y0073817D03*
X0101375Y0075646D03*
X0101125Y0084217D03*
X0099725Y0090667D03*
X0095225Y0094267D03*
X0098175Y0098067D03*
X0091925Y0107717D03*
X0098125Y0112217D03*
X0081125Y0125217D03*
X0065575Y0106467D03*
X0055625Y0105717D03*
X0046625Y0103217D03*
X0046625Y0113217D03*
X0046625Y0123217D03*
X0055125Y0091217D03*
X0048125Y0079717D03*
X0067725Y0083167D03*
X0086625Y0070717D03*
X0092125Y0076217D03*
X0091720Y0083843D03*
X0111625Y0095717D03*
X0125625Y0098217D03*
X0123125Y0121217D03*
X0133625Y0121217D03*
X0133625Y0130717D03*
X0101425Y0064117D03*
X0094625Y0061717D03*
M02*
